{"title":"Lily Allen - Somewhere Only We Know [Music Video] 720p [Sbyky]","uid":9392504,"size":32886830,"categoryP":"video","categoryS":"music_videos","magnet":"?xt=urn:btih:4d65edc1993609ff676ce3c714a14472df9db679&amp;dn=Lily+Allen+-+Somewhere+Only+We+Know+%5BMusic+Video%5D+720p+%5BSbyky%5D&amp;tr=udp%3A%2F%2Ftracker.openbittorrent.com%3A80&amp;tr=udp%3A%2F%2Fopen.demonii.com%3A1337&amp;tr=udp%3A%2F%2Ftracker.coppersurfer.tk%3A6969&amp;tr=udp%3A%2F%2Fexodus.desync.com%3A6969","seeders":1,"leechers":0,"uploader":"Sbyky","files":1,"time":1387910931,"description":"\n\nGeneral\nComplete name                            : Lily Allen - Somewhere Only We Know [Music Video] 720p [Sbyky].mp4\nFormat                                   : MPEG-4\nFormat profile                           : Base Media\nCodec ID                                 : isom\nFile size                                : 31.4 MiB\nDuration                                 : 3mn 43s\nOverall bit rate mode                    : Variable\nOverall bit rate                         : 1 180 Kbps\nEncoded date                             : UTC 2013-12-19 06:22:10\nTagged date                              : UTC 2013-12-19 06:22:10\n\nVideo\nID                                       : 1\nFormat                                   : AVC\nFormat/Info                              : Advanced Video Codec\nFormat profile                           : &lt;a class=&quot;__cf_email__&quot; href=&quot;/cdn-cgi/l/email-protection&quot; data-cfemail=&quot;ffb29e9691bfb3ccd1ce&quot;&gt;[email&amp;#160;protected]&lt;/a&gt;&lt;script cf-hash='f9e31' type=&quot;text/javascript&quot;&gt;\n/* &lt;![CDATA[ */!function(){try{var t=&quot;currentScript&quot;in document?document.currentScript:function(){for(var t=document.getElementsByTagName(&quot;script&quot;),e=t.length;e--;)if(t[e].getAttribute(&quot;cf-hash&quot;))return t[e]}();if(t&amp;&amp;t.previousSibling){var e,r,n,i,c=t.previousSibling,a=c.getAttribute(&quot;data-cfemail&quot;);if(a){for(e=&quot;&quot;,r=parseInt(a.substr(0,2),16),n=2;a.length-n;n+=2)i=parseInt(a.substr(n,2),16)^r,e+=String.fromCharCode(i);e=document.createTextNode(e),c.parentNode.replaceChild(e,c)}}}catch(u){}}();/* ]]&gt; */&lt;/script&gt;\nFormat settings, CABAC                   : Yes\nFormat settings, ReFrames                : 3 frames\nCodec ID                                 : avc1\nCodec ID/Info                            : Advanced Video Coding\nDuration                                 : 3mn 42s\nBit rate                                 : 1 051 Kbps\nWidth                                    : 1 280 pixels\nHeight                                   : 720 pixels\nDisplay aspect ratio                     : 16:9\nFrame rate mode                          : Constant\nFrame rate                               : 25.000 fps\nColor space                              : YUV\nChroma subsampling                       : 4:2:0\nBit depth                                : 8 bits\nScan type                                : Progressive\nBits/(Pixel*Frame)                       : 0.046\nStream size                              : 27.9 MiB (89%)\nEncoded date                             : UTC 2013-12-19 06:22:10\nTagged date                              : UTC 2013-12-19 06:22:10\n\nAudio\nID                                       : 2\nFormat                                   : AAC\nFormat/Info                              : Advanced Audio Codec\nFormat profile                           : LC\nCodec ID                                 : 40\nDuration                                 : 3mn 43s\nBit rate mode                            : Variable\nBit rate                                 : 126 Kbps\nChannel(s)                               : 2 channels\nChannel positions                        : Front: L R\nSampling rate                            : 44.1 KHz\nCompression mode                         : Lossy\nDelay relative to video                  : 40ms\nStream size                              : 3.34 MiB (11%)\nEncoded date                             : UTC 2013-12-19 06:19:53\nTagged date                              : UTC 2013-12-19 06:19:53\n\nShared By Sbyky\n","torrent":{"xt":"urn:btih:4d65edc1993609ff676ce3c714a14472df9db679","amp;dn":"Lily+Allen+-+Somewhere+Only+We+Know+%5BMusic+Video%5D+720p+%5BSbyky%5D","amp;tr":["udp%3A%2F%2Ftracker.openbittorrent.com%3A80","udp%3A%2F%2Fopen.demonii.com%3A1337","udp%3A%2F%2Ftracker.coppersurfer.tk%3A6969","udp%3A%2F%2Fexodus.desync.com%3A6969"],"infoHash":"4d65edc1993609ff676ce3c714a14472df9db679","infoHashBuffer":{"type":"Buffer","data":[77,101,237,193,153,54,9,255,103,108,227,199,20,161,68,114,223,157,182,121]},"announce":[],"urlList":[]}}